<mxfile host="app.diagrams.net" modified="2021-10-28T07:33:52.973Z" agent="5.0 (Windows NT 10.0; Win64; x64) AppleWebKit/537.36 (KHTML, like Gecko) Chrome/92.0.4515.159 Safari/537.36" etag="3XzmYfPXTEZDLfo826TQ" version="15.3.7" type="github">
  <diagram id="5y8WKerClhFsdwtr1sQa" name="Page-1">
    <mxGraphModel dx="638" dy="491" grid="1" gridSize="10" guides="1" tooltips="1" connect="1" arrows="1" fold="1" page="1" pageScale="1" pageWidth="200" pageHeight="250" math="1" shadow="0">
      <root>
        <mxCell id="0" />
        <mxCell id="1" parent="0" />
        <mxCell id="mxmy_XFPGLv-WRa77Hi1-1" value="&lt;font style=&quot;font-size: 14px&quot;&gt;Conv&lt;/font&gt;" style="rounded=0;whiteSpace=wrap;html=1;strokeWidth=2;" vertex="1" parent="1">
          <mxGeometry x="461" y="55" width="100" height="40" as="geometry" />
        </mxCell>
        <mxCell id="mxmy_XFPGLv-WRa77Hi1-2" value="&lt;font style=&quot;font-size: 14px&quot;&gt;Conv&lt;/font&gt;" style="rounded=0;whiteSpace=wrap;html=1;strokeWidth=2;" vertex="1" parent="1">
          <mxGeometry x="461" y="135" width="100" height="40" as="geometry" />
        </mxCell>
        <mxCell id="mxmy_XFPGLv-WRa77Hi1-3" value="" style="endArrow=classic;html=1;strokeWidth=2;" edge="1" parent="1">
          <mxGeometry width="50" height="50" relative="1" as="geometry">
            <mxPoint x="510.5" y="95" as="sourcePoint" />
            <mxPoint x="511" y="135" as="targetPoint" />
          </mxGeometry>
        </mxCell>
        <mxCell id="mxmy_XFPGLv-WRa77Hi1-4" value="" style="endArrow=classic;html=1;strokeWidth=2;" edge="1" parent="1">
          <mxGeometry width="50" height="50" relative="1" as="geometry">
            <mxPoint x="510.5" y="175" as="sourcePoint" />
            <mxPoint x="511" y="235" as="targetPoint" />
          </mxGeometry>
        </mxCell>
        <mxCell id="mxmy_XFPGLv-WRa77Hi1-5" value="" style="endArrow=classic;html=1;strokeWidth=2;" edge="1" parent="1">
          <mxGeometry width="50" height="50" relative="1" as="geometry">
            <mxPoint x="511" y="15" as="sourcePoint" />
            <mxPoint x="510.5" y="55" as="targetPoint" />
          </mxGeometry>
        </mxCell>
        <mxCell id="mxmy_XFPGLv-WRa77Hi1-6" value="&lt;b&gt;&lt;font style=&quot;font-size: 14px&quot;&gt;ReLU&lt;/font&gt;&lt;/b&gt;" style="text;html=1;strokeColor=none;fillColor=none;align=center;verticalAlign=middle;whiteSpace=wrap;rounded=0;" vertex="1" parent="1">
          <mxGeometry x="498" y="105" width="82" height="20" as="geometry" />
        </mxCell>
        <mxCell id="mxmy_XFPGLv-WRa77Hi1-9" value="" style="curved=1;endArrow=classic;html=1;strokeWidth=2;" edge="1" parent="1">
          <mxGeometry width="50" height="50" relative="1" as="geometry">
            <mxPoint x="511" y="35" as="sourcePoint" />
            <mxPoint x="511" y="205" as="targetPoint" />
            <Array as="points">
              <mxPoint x="421" y="35" />
              <mxPoint x="441" y="205" />
            </Array>
          </mxGeometry>
        </mxCell>
        <mxCell id="mxmy_XFPGLv-WRa77Hi1-10" value="&lt;b&gt;&lt;font style=&quot;font-size: 14px&quot;&gt;ReLU&lt;/font&gt;&lt;/b&gt;" style="text;html=1;strokeColor=none;fillColor=none;align=center;verticalAlign=middle;whiteSpace=wrap;rounded=0;" vertex="1" parent="1">
          <mxGeometry x="519" y="205" width="40" height="20" as="geometry" />
        </mxCell>
      </root>
    </mxGraphModel>
  </diagram>
</mxfile>
